# xmcd
#
# Track frame offsets: 
#        150
#        3580
#        16177
#        29892
#        42430
#        62247
#        80375
#        95619
#        113291
#        135864
#        152091
#        172943
#
# Disc length: 2516 seconds
#
# Revision: 0
# Processed by: cddbd v1.5.2PL0 Copyright (c) Steve Scherf et al.
# Submitted via: ExactAudioCopy v0.99pb5
#
DISCID=8a09d20c
DTITLE=Николай Садиков - Tequila блюз
DYEAR=2003
DGENRE=Blues
TTITLE0=Intro
TTITLE1=Tequila-Блюз
TTITLE2=Дорожный Блюз
TTITLE3=Прощай парень
TTITLE4=Дыхание Осени
TTITLE5=Тётя Ида Блюз
TTITLE6=Одинокий Блюз
TTITLE7=Барселона-Москва
TTITLE8=Фото на память
TTITLE9=На берегу Моря
TTITLE10=Твои глаза
TTITLE11=Листает ветер...
EXTD=Все песни написаны Николаем Садиковым,\nкроме 5, 10 (Н.Садиков, А
EXTD=Гугоров, М.Карпунина]\nНиколай Садиков - вокал, гитара\nВладимир
EXTD=Кожекин - блюзовая гармоника 1, 2, 4, 6, 7\nТимур Ведерников - г
EXTD=итара 5, 8, 9, 10, 11\nЗаписано 26 июня 2003 на студии "Гроссмейс
EXTD=тер".\nЗапись, сведение, мастеринг: Тимур Ведерников\nПесня "Лист
EXTD=ает ветер..." посвящается Константину Никольскому,\nмоему любимом
EXTD=у автору песен.\nБлагодарность: Владимиру Кожекину, Тимуру Ведерн
EXTD=икову, Александру Гречаникову\nи Петру Маевскому ("Lonesome Blues
EXTD=Band"), Михаилу Соколову, Евгению Лепихину,\nЕлене Лавренко и вс
EXTD=ем моим друзьям за помощь и участие.\nОсобая благодарность моей ж
EXTD=ене Маше.\nДизайн: Касьянова Татьяна - Фото: Корбут Павел. "ДРУГАЯ
EXTD=МУЗЫКА"
EXTT0=
EXTT1=
EXTT2=
EXTT3=
EXTT4=
EXTT5=
EXTT6=
EXTT7=
EXTT8=
EXTT9=
EXTT10=
EXTT11=
PLAYORDER=
